<svg width="12" height="14" viewBox="0 0 12 14" fill="none" xmlns="http://www.w3.org/2000/svg">
<path d="M5.66664 13.1281C4.88032 13.1281 4.14357 12.9794 3.4564 12.682C2.76922 12.3846 2.17008 11.9803 1.65897 11.4692C1.14786 10.9581 0.743586 10.3589 0.446152 9.67175C0.148717 8.98457 0 8.24782 0 7.4615H0.999976C0.999976 8.7615 1.45275 9.86428 2.35831 10.7698C3.26386 11.6754 4.36664 12.1282 5.66664 12.1282C6.96664 12.1282 8.06942 11.6754 8.97498 10.7698C9.88053 9.86428 10.3333 8.7615 10.3333 7.4615C10.3333 6.1615 9.88053 5.05872 8.97498 4.15317C8.06942 3.24761 6.96664 2.79483 5.66664 2.79483H5.48971L6.54869 3.85381L5.84614 4.57687L3.56412 2.28843L5.85896 0L6.56151 0.723059L5.48971 1.79486H5.66664C6.45296 1.79486 7.18971 1.94357 7.87689 2.24101C8.56407 2.53844 9.16321 2.94271 9.67432 3.45382C10.1854 3.96493 10.5897 4.56408 10.8871 5.25125C11.1846 5.93843 11.3333 6.67518 11.3333 7.4615C11.3333 8.24782 11.1846 8.98457 10.8871 9.67175C10.5897 10.3589 10.1854 10.9581 9.67432 11.4692C9.16321 11.9803 8.56407 12.3846 7.87689 12.682C7.18971 12.9794 6.45296 13.1281 5.66664 13.1281Z" fill="#4E4543"/>
</svg>
