<svg width="15" height="11" viewBox="0 0 15 11" fill="none" xmlns="http://www.w3.org/2000/svg">
<path d="M2.99847 10.0384C2.47811 10.0384 2.03631 9.85644 1.67306 9.49248C1.30981 9.12852 1.12819 8.68657 1.12819 8.16663H0V1.20512C0 0.868369 0.116666 0.583328 0.349997 0.349997C0.583328 0.116666 0.868369 0 1.20512 0H10.282V2.53845H12.0512L14.2051 5.42308V8.16663H13C13 8.68657 12.8179 9.12852 12.4536 9.49248C12.0893 9.85644 11.647 10.0384 11.1267 10.0384C10.6063 10.0384 10.1645 9.85644 9.80127 9.49248C9.43803 9.12852 9.2564 8.68657 9.2564 8.16663H4.87176C4.87176 8.68799 4.68964 9.1303 4.32538 9.49355C3.96113 9.85679 3.51883 10.0384 2.99847 10.0384ZM2.99998 9.03844C3.24442 9.03844 3.45084 8.95425 3.61922 8.78587C3.7876 8.61749 3.87179 8.41108 3.87179 8.16663C3.87179 7.92218 3.7876 7.71577 3.61922 7.54739C3.45084 7.37901 3.24442 7.29482 2.99998 7.29482C2.75553 7.29482 2.54911 7.37901 2.38073 7.54739C2.21236 7.71577 2.12817 7.92218 2.12817 8.16663C2.12817 8.41108 2.21236 8.61749 2.38073 8.78587C2.54911 8.95425 2.75553 9.03844 2.99998 9.03844ZM0.999976 7.16665H1.48202C1.6239 6.91964 1.82881 6.71259 2.09676 6.54549C2.36471 6.37839 2.66579 6.29484 2.99998 6.29484C3.32562 6.29484 3.62455 6.37732 3.89678 6.54228C4.169 6.70725 4.37605 6.91537 4.51793 7.16665H9.28205V0.999976H1.20512C1.15383 0.999976 1.10682 1.02134 1.06408 1.06408C1.02134 1.10682 0.999976 1.15383 0.999976 1.20512V7.16665ZM11.1282 9.03844C11.3726 9.03844 11.5791 8.95425 11.7474 8.78587C11.9158 8.61749 12 8.41108 12 8.16663C12 7.92218 11.9158 7.71577 11.7474 7.54739C11.5791 7.37901 11.3726 7.29482 11.1282 7.29482C10.8837 7.29482 10.6773 7.37901 10.5089 7.54739C10.3406 7.71577 10.2564 7.92218 10.2564 8.16663C10.2564 8.41108 10.3406 8.61749 10.5089 8.78587C10.6773 8.95425 10.8837 9.03844 11.1282 9.03844ZM10.282 5.83332H13.2692L11.5384 3.53843H10.282V5.83332Z" fill="#4E4543"/>
</svg>
