<svg width="12" height="13" viewBox="0 0 12 13" fill="none" xmlns="http://www.w3.org/2000/svg">
<path d="M5.16665 11.3474V6.58843L0.999976 4.1756V8.8192C0.999976 8.85339 1.00852 8.88544 1.02562 8.91536C1.04271 8.94527 1.06836 8.97092 1.10255 8.99228L5.16665 11.3474ZM6.16663 11.3474L10.2307 8.99228C10.2649 8.97092 10.2906 8.94527 10.3077 8.91536C10.3248 8.88544 10.3333 8.85339 10.3333 8.8192V4.1756L6.16663 6.58843V11.3474ZM5.06408 12.4384L0.602559 9.87047C0.412817 9.76107 0.264955 9.61492 0.158973 9.43201C0.0529911 9.24911 0 9.04825 0 8.82945V3.77306C0 3.55426 0.0529911 3.3534 0.158973 3.1705C0.264955 2.98759 0.412817 2.84144 0.602559 2.73204L5.06408 0.164101C5.25382 0.0547004 5.45468 0 5.66664 0C5.87861 0 6.07946 0.0547004 6.2692 0.164101L10.7307 2.73204C10.9205 2.84144 11.0683 2.98759 11.1743 3.1705C11.2803 3.3534 11.3333 3.55426 11.3333 3.77306V8.82945C11.3333 9.04825 11.2803 9.24911 11.1743 9.43201C11.0683 9.61492 10.9205 9.76107 10.7307 9.87047L6.2692 12.4384C6.07946 12.5478 5.87861 12.6025 5.66664 12.6025C5.45468 12.6025 5.25382 12.5478 5.06408 12.4384ZM8.23715 4.23461L9.78332 3.34742L5.76921 1.02562C5.73502 1.00425 5.70083 0.993565 5.66664 0.993565C5.63245 0.993565 5.59826 1.00425 5.56407 1.02562L4.11662 1.85896L8.23715 4.23461ZM5.66664 5.72691L7.21666 4.82946L3.09998 2.44997L1.54996 3.34742L5.66664 5.72691Z" fill="#554242"/>
</svg>
