<svg width="14" height="10" viewBox="0 0 14 10" fill="none" xmlns="http://www.w3.org/2000/svg">
<path d="M7.93584 5.39739C7.47004 5.39739 7.07581 5.23607 6.75317 4.91342C6.43052 4.59078 6.2692 4.19656 6.2692 3.73075C6.2692 3.26494 6.43052 2.87072 6.75317 2.54807C7.07581 2.22543 7.47004 2.06411 7.93584 2.06411C8.40165 2.06411 8.79587 2.22543 9.11852 2.54807C9.44116 2.87072 9.60249 3.26494 9.60249 3.73075C9.60249 4.19656 9.44116 4.59078 9.11852 4.91342C8.79587 5.23607 8.40165 5.39739 7.93584 5.39739ZM3.53843 7.4615C3.20702 7.4615 2.92332 7.3435 2.68731 7.1075C2.45131 6.87149 2.33331 6.58779 2.33331 6.25638V1.20512C2.33331 0.873711 2.45131 0.590007 2.68731 0.354004C2.92332 0.118001 3.20702 0 3.53843 0H12.3333C12.6647 0 12.9484 0.118001 13.1844 0.354004C13.4204 0.590007 13.5384 0.873711 13.5384 1.20512V6.25638C13.5384 6.58779 13.4204 6.87149 13.1844 7.1075C12.9484 7.3435 12.6647 7.4615 12.3333 7.4615H3.53843ZM4.5384 6.46152H11.3333C11.3333 6.12905 11.4513 5.84508 11.6873 5.60961C11.9233 5.37414 12.207 5.2564 12.5384 5.2564V2.20509C12.2059 2.20509 11.922 2.08709 11.6865 1.85109C11.451 1.61509 11.3333 1.33138 11.3333 0.999976H4.5384C4.5384 1.33245 4.4204 1.61642 4.1844 1.85189C3.9484 2.08736 3.66469 2.20509 3.33328 2.20509V5.2564C3.66576 5.2564 3.94973 5.37441 4.1852 5.61041C4.42067 5.84641 4.5384 6.13012 4.5384 6.46152ZM11.5512 9.79481H1.20512C0.873711 9.79481 0.590006 9.67681 0.354004 9.4408C0.118001 9.2048 0 8.9211 0 8.58969V1.98718H0.999976V8.58969C0.999976 8.64097 1.02134 8.68799 1.06408 8.73073C1.10682 8.77346 1.15383 8.79483 1.20512 8.79483H11.5512V9.79481ZM3.53843 6.46152H3.33328C3.33328 6.46152 3.33328 6.44122 3.33328 6.40062C3.33328 6.36002 3.33328 6.31194 3.33328 6.25638V1.20512C3.33328 1.14956 3.33328 1.10148 3.33328 1.06088C3.33328 1.02028 3.33328 0.999976 3.33328 0.999976H3.53843C3.48287 0.999976 3.43479 1.02028 3.39419 1.06088C3.35359 1.10148 3.33328 1.14956 3.33328 1.20512V6.25638C3.33328 6.31194 3.35359 6.36002 3.39419 6.40062C3.43479 6.44122 3.48287 6.46152 3.53843 6.46152Z" fill="#4E4543"/>
</svg>
