<svg width="14" height="14" viewBox="0 0 14 14" fill="none" xmlns="http://www.w3.org/2000/svg">
<path d="M4.75895 13.1538L3.56921 11.1487L1.31025 10.6538L1.53076 8.32817L0 6.57689L1.53076 4.82562L1.31025 2.49999L3.56921 2.00512L4.75895 0L6.88458 0.902559L9.01021 0L10.2 2.00512L12.4589 2.49999L12.2384 4.82562L13.7692 6.57689L12.2384 8.32817L12.4589 10.6538L10.2 11.1487L9.01021 13.1538L6.88458 12.2512L4.75895 13.1538ZM5.18458 11.8769L6.88458 11.1564L8.60509 11.8769L9.55125 10.2769L11.3846 9.85638L11.2179 7.97689L12.4512 6.57689L11.2179 5.15638L11.3846 3.27689L9.55125 2.87689L8.58458 1.27689L6.88458 1.9974L5.16407 1.27689L4.21792 2.87689L2.38458 3.27689L2.55125 5.15638L1.31792 6.57689L2.55125 7.97689L2.38458 9.87689L4.21792 10.2769L5.18458 11.8769ZM6.18458 8.71277L9.72046 5.17689L9.01792 4.45383L6.18458 7.28717L4.75125 5.87434L4.0487 6.57689L6.18458 8.71277Z" fill="#4E4543"/>
</svg>
