<svg width="14" height="17" viewBox="0 0 14 17" fill="none" xmlns="http://www.w3.org/2000/svg">
<path d="M10.5121 5.04002C10.5121 5.59202 10.4011 6.09002 10.1791 6.53402C9.95712 6.97802 9.69012 7.34702 9.37812 7.64102C9.06612 7.93502 8.75112 8.21702 8.43312 8.48702C8.11512 8.75702 7.84512 9.06302 7.62312 9.40502C7.40112 9.74702 7.29012 10.11 7.29012 10.494V11.34H5.67012V10.35C5.67012 9.90602 5.78112 9.48602 6.00312 9.09002C6.22512 8.69402 6.49512 8.35202 6.81312 8.06402C7.13112 7.77602 7.44612 7.48802 7.75812 7.20002C8.07012 6.91202 8.33712 6.58502 8.55912 6.21902C8.78112 5.85302 8.89212 5.46002 8.89212 5.04002C8.89212 4.42802 8.68212 3.93302 8.26212 3.55502C7.84212 3.17702 7.28412 2.98802 6.58812 2.98802C5.71212 2.98802 5.10612 3.23402 4.77012 3.72602C4.43412 4.21802 4.26612 4.90802 4.26612 5.79602H2.73612C2.73612 4.41602 3.06912 3.36902 3.73512 2.65502C4.40112 1.94102 5.38212 1.58402 6.67812 1.58402C7.84212 1.58402 8.77212 1.89602 9.46812 2.52002C10.1641 3.14402 10.5121 3.98402 10.5121 5.04002ZM7.29012 13.05V14.922H5.67012V13.05H7.29012ZM0.00011719 16.902V2.41995e-05H13.1401V16.902H0.00011719ZM1.49412 15.642H11.6461V1.26002H1.49412V15.642Z" fill="#7E525C"/>
</svg>
