<svg width="17" height="21" viewBox="0 0 17 21" fill="none" xmlns="http://www.w3.org/2000/svg">
<path d="M2.5 20.5C1.95 20.5 1.47917 20.3042 1.0875 19.9125C0.695833 19.5208 0.5 19.05 0.5 18.5V6.5C0.5 5.95 0.695833 5.47917 1.0875 5.0875C1.47917 4.69583 1.95 4.5 2.5 4.5H4.5V4.5C4.5 3.4 4.89167 2.45833 5.675 1.675C6.45833 0.891667 7.4 0.5 8.5 0.5C9.6 0.5 10.5417 0.891667 11.325 1.675C12.1083 2.45833 12.5 3.4 12.5 4.5V4.5H14.5C15.05 4.5 15.5208 4.69583 15.9125 5.0875C16.3042 5.47917 16.5 5.95 16.5 6.5V18.5C16.5 19.05 16.3042 19.5208 15.9125 19.9125C15.5208 20.3042 15.05 20.5 14.5 20.5H2.5V20.5M6.5 4.5H10.5V4.5C10.5 3.95 10.3042 3.47917 9.9125 3.0875C9.52083 2.69583 9.05 2.5 8.5 2.5C7.95 2.5 7.47917 2.69583 7.0875 3.0875C6.69583 3.47917 6.5 3.95 6.5 4.5V4.5V4.5M11.5 9.5C11.7833 9.5 12.0208 9.40417 12.2125 9.2125C12.4042 9.02083 12.5 8.78333 12.5 8.5V6.5H10.5V8.5C10.5 8.78333 10.5958 9.02083 10.7875 9.2125C10.9792 9.40417 11.2167 9.5 11.5 9.5V9.5M5.5 9.5C5.78333 9.5 6.02083 9.40417 6.2125 9.2125C6.40417 9.02083 6.5 8.78333 6.5 8.5V6.5H4.5V8.5C4.5 8.78333 4.59583 9.02083 4.7875 9.2125C4.97917 9.40417 5.21667 9.5 5.5 9.5V9.5" stroke="#7E525C" stroke-linejoin="bevel"/>
</svg>
